<?xml version="1.0" encoding="utf-8"?>
<!-- generated at drububu.com and then edited for transparency -->
<!DOCTYPE svg PUBLIC "-//W3C//DTD SVG 1.1//EN" "http://www.w3.org/Graphics/SVG/1.1/DTD/svg11.dtd">
<svg version="1.1" preserveAspectRatio="xMinYMin meet" xmlns="http://www.w3.org/2000/svg" xmlns:xlink="http://www.w3.org/1999/xlink" x="0px" y="0px" width="16px" height="16px" viewBox="0 0 16 16">
<path d="M5 1h5v1h1v8h-2v-1h-2v1h-5v-1h2v-1h-2v-1h2v-1h-2v-1h2v-1h-2v-1h2v-1h1
	v-1zM6 2v1h-1v2h1v-1h1v-2h-1zM8 2v2h1v1h-1v2h1v1h1v-2h-1v-1h1v-2h-1v-1h-1zM6 5v1h-1v2h1v-1h1v-2h-1z" fill-rule="nonzero" fill="rgb(0,0,0)"/>
<path d="M0 2h2v1h-2v-1z" fill="rgb(0,0,0)"/>
<path d="M0 4h2v1h-2v-1z" fill="rgb(0,0,0)"/>
<path d="M12 5h2v1h1v2h1v5h-1v1h-1v1h-2v1h-3v-1h-2v-1h-1v-2h-1v-1h2v-1h2v1h3v-6z" fill="rgb(0,0,0)"/>
<path d="M0 6h2v1h-2v-1z" fill="rgb(0,0,0)"/>
<path d="M0 8h2v1h-2v-1z" fill="rgb(0,0,0)"/>
</svg>
